<svg width="118" height="32" viewBox="0 0 118 32" fill="none" xmlns="http://www.w3.org/2000/svg">
	<path
		d="M0.88 31.576V0.711998H5.728V18.04H9.568V13.768H18.304V9.4H23.2V14.2H18.784V18.52H10.048V22.408H18.784V26.776H23.2V31.576H18.304V27.256H9.568V22.888H5.728V31.576H0.88ZM30.5136 31.576V27.256H26.1456V13.768H30.5136V9.4H44.0496V13.768H48.4656V27.256H44.0496V31.576H30.5136ZM30.9936 26.776H43.5696V14.2H30.9936V26.776ZM54.2706 31.576V0.711998H59.1186V13.768H62.9586V9.4H72.1746V13.768H76.5906V31.576H71.6946V14.2H63.4386V18.52H59.1186V31.576H54.2706ZM85.8261 31.576V27.256H81.4581V13.768H85.8261V9.4H99.3621V13.768H103.778V26.776H108.146V31.576H103.298V27.256H99.3621V31.576H85.8261ZM86.3061 26.776H98.8821V14.2H86.3061V26.776ZM112.489 31.576V9.4H117.337V31.576H112.489ZM112.489 5.56V0.711998H117.337V5.56H112.489Z"
		fill="#DFDFDF"
	/>
</svg>
